<?xml version="1.0" standalone="no"?>
<!DOCTYPE svg PUBLIC "-//W3C//DTD SVG 20010904//EN"
 "http://www.w3.org/TR/2001/REC-SVG-20010904/DTD/svg10.dtd">
<svg version="1.0" xmlns="http://www.w3.org/2000/svg"
 width="225.000000pt" height="225.000000pt" viewBox="0 0 225.000000 225.000000"
 preserveAspectRatio="xMidYMid meet">

<g transform="translate(0.000000,225.000000) scale(0.100000,-0.100000)"
fill="#000000" stroke="none">
<path d="M962 1750 c-226 -59 -404 -239 -462 -466 -88 -344 121 -696 466 -784
344 -88 696 121 784 466 88 344 -121 696 -466 784 -99 26 -224 25 -322 0z
m320 -86 c88 -26 169 -75 238 -144 111 -111 164 -239 164 -395 0 -156 -53
-284 -164 -395 -111 -111 -239 -164 -395 -164 -156 0 -284 53 -395 164 -111
111 -164 239 -164 395 0 275 194 506 467 555 66 11 180 4 249 -16z"/>
<path d="M862 1387 c-18 -18 -32 -37 -32 -43 0 -5 47 -56 105 -114 l105 -105
-107 -107 -108 -108 43 -42 42 -43 108 108 107 107 108 -107 107 -108 42 43
43 42 -108 108 -107 107 105 105 c58 58 105 109 105 115 0 13 -62 75 -75 75
-5 0 -57 -47 -115 -105 l-105 -105 -105 105 c-58 58 -109 105 -115 105 -6 0
-25 -15 -43 -33z"/>
</g>
</svg>
