<?xml version="1.0" standalone="no"?>
<!DOCTYPE svg PUBLIC "-//W3C//DTD SVG 20010904//EN"
 "http://www.w3.org/TR/2001/REC-SVG-20010904/DTD/svg10.dtd">
<svg version="1.0" xmlns="http://www.w3.org/2000/svg"
 width="200.000000pt" height="200.000000pt" viewBox="0 0 200.000000 200.000000"
 preserveAspectRatio="xMidYMid meet">

<g transform="translate(0.000000,200.000000) scale(0.100000,-0.100000)"
fill="#000000" stroke="none">
<path d="M624 1286 c-3 -7 -4 -33 -2 -57 l3 -44 375 0 375 0 0 55 0 55 -373 3
c-312 2 -373 0 -378 -12z"/>
<path d="M624 1046 c-3 -7 -4 -33 -2 -57 l3 -44 275 0 275 0 0 55 0 55 -273 3
c-226 2 -273 0 -278 -12z"/>
<path d="M624 806 c-3 -7 -4 -33 -2 -57 l3 -44 175 0 175 0 0 55 0 55 -173 3
c-141 2 -173 0 -178 -12z"/>
</g>
</svg>
